<svg xmlns="http://www.w3.org/2000/svg" viewBox="59 0 124 39.2731">
  <path d="m59.979,13.0625h2.7461l7.3613,15.4912,7.3057-15.4912h2.7461l-9.1455,19.2266h-1.8682l-9.1455-19.2266Z" fill="#363436" stroke-width="0"/>
  <path d="m81.2964,14.6015c0-1.0996.7695-1.8682,1.8682-1.8682s1.8672.7686,1.8672,1.8682c0,1.0977-.7686,1.8672-1.8672,1.8672s-1.8682-.7695-1.8682-1.8672Zm3.0488,17.6875h-2.3623v-13.7324h2.3623v13.7324Z" fill="#363436" stroke-width="0"/>
  <path d="m92.523,18.2265c2.5,0,4.3125.9883,5.4111,2.9668l-1.9502,1.2354c-.6865-1.3184-1.8955-2.0049-3.5703-2.0049-1.5938,0-2.6924.6318-2.6924,1.7852,0,1.1816,1.1543,1.4834,3.2686,2.0049,2.8838.7139,4.9443,1.3184,4.9443,4.1201,0,2.6914-1.9229,4.2852-5.2734,4.2852-2.8564,0-5.0811-1.1816-6.0703-3.2139l1.9502-1.2363c.7139,1.4561,2.1699,2.2529,4.2021,2.2529,1.8408,0,2.8291-.6602,2.8291-1.9229,0-1.291-1.0439-1.5654-3.0488-2.0322-2.5547-.6045-5.1631-1.3184-5.1631-4.1758,0-2.4717,1.9775-4.0645,5.1631-4.0645Z" fill="#363436" stroke-width="0"/>
  <path d="m112.0991,32.289h-2.2803v-1.9775c-1.0713,1.5381-2.335,2.3076-4.3945,2.3076-3.8447,0-5.1357-2.5273-5.1357-5.9336v-8.1289h2.417v8.1289c0,2.1699.6318,3.7363,3.1309,3.7363,3.1309,0,3.9004-2.582,3.9004-5.4658v-6.3994h2.3623v13.7324Z" fill="#363436" stroke-width="0"/>
  <path d="m120.8316,18.2265c3.6533,0,5.5205,1.7305,5.5205,5.1357v8.9268h-2.3623v-1.9502c-.9609,1.4287-2.5537,2.2803-4.5039,2.2803-2.8018,0-4.6689-1.7578-4.6689-4.3125,0-2.3623,1.6748-3.9551,4.4219-4.2295l3.8721-.3848c.6318-.0547.8789-.2744.8789-.7412v-.3574c0-1.4287-1.126-2.252-3.0488-2.252-2.0049,0-3.2676.8789-3.543,2.4717l-2.0869-1.126c.5771-2.252,2.499-3.4609,5.5205-3.4609Zm-1.3184,8.0479c-1.4004.1641-2.2246.9336-2.2246,2.0596,0,1.2363.9609,2.0596,2.5547,2.0596,2.3066,0,4.1465-1.6475,4.1465-3.6523v-1.0166l-4.4766.5498Z" fill="#363436" stroke-width="0"/>
  <path d="m131.9009,32.289h-2.417V13.0625h2.417v19.2266Z" fill="#363436" stroke-width="0"/>
  <path d="m134.6841,14.6015c0-1.0996.7695-1.8682,1.8682-1.8682s1.8672.7686,1.8672,1.8682c0,1.0977-.7686,1.8672-1.8672,1.8672s-1.8682-.7695-1.8682-1.8672Zm3.0488,17.6875h-2.3623v-13.7324h2.3623v13.7324Z" fill="#363436" stroke-width="0"/>
  <path d="m150.3853,20.6709l-7.6357,9.4209h7.9102v2.1973h-10.8213v-2.1152l7.6357-9.4199h-7.3887v-2.1973h10.2998v2.1143Z" fill="#363436" stroke-width="0"/>
  <path d="m158.439,18.2265c4.3115,0,6.5918,3.1309,6.5918,7.1963v.7139h-10.9863v.0273c.1367,2.8018,2.1699,4.2578,4.5039,4.2578,2.0049,0,3.4062-.9893,4.3672-2.1152l1.2363,1.8398c-1.0986,1.2363-2.9395,2.4727-5.4932,2.4727-4.1475,0-7.0039-2.7471-7.0039-7.0869,0-4.0371,2.6367-7.3057,6.7842-7.3057Zm.0273,2.1973c-2.582,0-3.9824,1.5381-4.3125,3.8174h8.2949c-.2197-2.2793-1.5107-3.8174-3.9824-3.8174Z" fill="#363436" stroke-width="0"/>
  <path d="m180.3765,32.289h-2.3623v-1.9775c-1.126,1.5107-2.8018,2.3076-4.834,2.3076-3.9004,0-6.6191-2.9668-6.6191-7.1963s2.7188-7.1963,6.6191-7.1963c1.9502,0,3.543.7695,4.834,2.335v-7.499h2.3623v19.2266Zm-11.3711-6.8662c0,3.0205,1.8125,4.999,4.5869,4.999s4.5869-1.9502,4.5869-4.999-1.8135-4.999-4.5869-4.999-4.5869,1.9775-4.5869,4.999Z" fill="#363436" stroke-width="0"/>
</svg>
